<svg xmlns="http://www.w3.org/2000/svg"  viewBox="0 0 40 40" width="40px" height="40px"><path fill="#98ccfd" d="M20,38.5c-6.615,0-12.5-13.001-12.5-23.25C7.5,6.512,12.056,1.5,20,1.5s12.5,5.012,12.5,13.75 C32.5,25.499,26.615,38.5,20,38.5z"/><path fill="#4788c7" d="M20,2c7.626,0,12,4.829,12,13.25C32,25.184,26.181,38,20,38S8,25.184,8,15.25 C8,6.829,12.374,2,20,2 M20,1C12.807,1,7,5.232,7,15.25C7,25.268,12.807,39,20,39s13-13.732,13-23.75C33,5.232,27.193,1,20,1L20,1 z"/><path fill="#b6dcfe" d="M20,38.5c-0.214,0-0.425-0.017-0.635-0.04c-3.019-0.368-6.107-3.463-8.467-8.493 c0,0-0.199-0.451-0.268-0.616c-0.084-0.197-0.18-0.403-0.281-0.618c-0.239-0.571-0.474-1.173-0.693-1.786 c-0.074-0.361-0.003-0.771,0.208-1.034C10.087,25.64,10.469,25.5,11,25.5c1.591,0,3.554,0.912,5.285,1.716 C17.769,27.905,19.05,28.5,20,28.5s2.231-0.595,3.715-1.284C25.446,26.412,27.409,25.5,29,25.5c0.531,0,0.913,0.14,1.135,0.415 c0.211,0.263,0.283,0.672,0.19,1.096c-0.202,0.55-0.436,1.152-0.684,1.742c-0.092,0.195-0.188,0.402-0.27,0.593 c-0.071,0.171-0.275,0.633-0.275,0.633c-2.354,5.018-5.443,8.114-8.468,8.482C20.425,38.483,20.214,38.5,20,38.5z"/><path fill="#4788c7" d="M29,26c0.21,0,0.585,0.03,0.746,0.228c0.108,0.134,0.146,0.368,0.102,0.621 c-0.206,0.571-0.429,1.144-0.651,1.673c-0.103,0.22-0.202,0.432-0.289,0.637c-0.071,0.17-0.145,0.338-0.219,0.505l-0.04,0.09 c-2.285,4.87-5.23,7.862-8.068,8.208C20.344,37.989,20.165,38,20,38s-0.344-0.011-0.568-0.036 c-2.851-0.347-5.796-3.339-8.071-8.188l-0.049-0.112c-0.074-0.168-0.148-0.335-0.223-0.514c-0.084-0.196-0.182-0.408-0.269-0.592 c-0.237-0.564-0.461-1.138-0.667-1.709c-0.044-0.253-0.006-0.487,0.102-0.621C10.415,26.03,10.79,26,11,26 c1.481,0,3.39,0.887,5.075,1.669C17.612,28.383,18.939,29,20,29s2.388-0.617,3.925-1.331C25.61,26.887,27.519,26,29,26 M29,25 c-3.047,0-7.097,3-9,3s-5.953-3-9-3c-1.651,0-2.017,1.181-1.814,2.117c0.222,0.621,0.46,1.232,0.712,1.829 c0.098,0.209,0.192,0.41,0.271,0.596c0.089,0.215,0.184,0.426,0.277,0.637c2.228,4.75,5.36,8.351,8.865,8.778 C19.538,38.982,19.767,39,20,39s0.462-0.018,0.689-0.043c3.506-0.427,6.637-4.028,8.865-8.778c0.093-0.212,0.188-0.422,0.277-0.637 c0.079-0.186,0.173-0.387,0.271-0.596c0.251-0.598,0.489-1.208,0.712-1.829C31.017,26.181,30.651,25,29,25L29,25z"/><path fill="#dff0fe" d="M14.538,24.239c-0.472-0.503-0.584-0.623-1.221-0.748L11.5,23.5v-0.911l0.246-0.146 c0.132-0.08,0.284-0.23,0.298-0.296c-0.273-0.376-0.946-0.609-1.162-0.662L10.5,21.393V21c0-0.68-0.189-1.514-0.408-2.479 C9.814,17.297,9.5,15.91,9.5,14.455c0-1.438,0.054-2.818,0.705-3.88c0.628-1.047,2.377-1.927,2.575-2.023l0.72-0.354V9.22 l-0.163,0.197c-0.69,0.631-1.619,1.823-1.418,2.376c0.083,0.312,0.188,0.312,0.282,0.312c0.185,0,0.418-0.097,0.569-0.192 c0.397-0.284,1.078-0.395,1.154-0.407l0.622-0.096l-0.047,0.627c-0.001,0.021-0.158,2.169,0.218,3.713 c0.37,1.568,1.154,1.75,1.712,1.75c0.693,0,1.755-1.203,2.161-1.786l0.91-1.307v5.825l-0.177,0.15 c-0.011,0.009-1.122,0.954-1.647,1.75c-0.389,0.661-1.383,1.849-2.476,2.326l-0.323,0.141L14.538,24.239z"/><path fill="#4788c7" d="M13,9v0.048c0,0-1.96,1.788-1.551,2.916c0.125,0.487,0.43,0.641,0.752,0.641 c0.31,0,0.637-0.143,0.838-0.27C13.373,12.096,14,12,14,12s-0.17,2.227,0.231,3.869C14.64,17.605,15.594,18,16.429,18 C17.607,18,19,16,19,16v4c0,0-1.169,0.989-1.742,1.857C16.849,22.551,15.911,23.602,15,24c-0.563-0.597-0.741-0.834-1.587-1 C12.84,23,12,23,12,23v-0.126c0,0,0.84-0.497,0.431-1.018C12.022,21.249,11,21,11,21c0-1.648-1-4.017-1-6.545 c0-1.383,0.049-2.669,0.631-3.619C11.204,9.881,13,9,13,9 M14,7.443l-1.441,0.659c-0.344,0.169-2.096,1.07-2.786,2.219 C9.06,11.487,9,12.942,9,14.455c0,1.511,0.321,2.927,0.604,4.177C9.808,19.529,10,20.376,10,21v0.785l0.763,0.186 c0.152,0.039,0.334,0.109,0.491,0.19l-0.242,0.152L11,22.874V23v1h1h1.313c0.391,0.081,0.444,0.137,0.86,0.581l0.099,0.105 l0.483,0.512l0.645-0.282c1.188-0.519,2.26-1.785,2.705-2.527c0.41-0.611,1.249-1.379,1.541-1.626l0.354-0.3V20v-4v-3.186 l-1.821,2.614C17.624,16.221,16.757,17,16.429,17c-0.293,0-0.903,0-1.224-1.36c-0.361-1.478-0.209-3.543-0.207-3.564l0.096-1.255 l-1.245,0.191c-0.198,0.03-0.872,0.154-1.36,0.488c-0.031,0.019-0.064,0.036-0.096,0.05c0.057-0.35,0.657-1.193,1.282-1.762 L14,9.489V9.048V7.443L14,7.443z"/><path fill="#dff0fe" d="M24.8,24.458c-1.092-0.477-2.087-1.666-2.489-2.348c-0.512-0.775-1.623-1.719-1.634-1.729 l-0.177-0.15v-5.821l0.91,1.303c0.518,0.742,1.531,1.786,2.161,1.786c0.558,0,1.342-0.181,1.711-1.746 c0.378-1.551,0.221-3.695,0.219-3.716l-0.048-0.628l0.622,0.096c0.076,0.012,0.757,0.123,1.176,0.421 c0.128,0.081,0.362,0.178,0.547,0.178c0.094,0,0.2,0,0.268-0.266c0.215-0.599-0.713-1.791-1.404-2.422L26.5,9.269l0-1.023 l0.72,0.305c0.197,0.097,1.947,0.977,2.577,2.027c0.649,1.058,0.703,2.438,0.703,3.876c0,1.455-0.314,2.842-0.592,4.066 C29.689,19.486,29.5,20.32,29.5,21v0.391l-0.38,0.094c-0.218,0.054-0.893,0.29-1.136,0.65c-0.012,0.083,0.154,0.239,0.271,0.308 l0.246,0.146V23.5h-1.913c-0.541,0.116-0.653,0.235-1.125,0.739l-0.339,0.36L24.8,24.458z"/><path fill="#4788c7" d="M27,9c0,0,1.796,0.881,2.369,1.836C29.951,11.785,30,13.072,30,14.455c0,2.528-1,4.898-1,6.545 c0,0-1.022,0.249-1.431,0.857C27.16,22.377,28,22.874,28,22.874V23c0,0-0.84,0-1.413,0c-0.846,0.166-1.025,0.403-1.587,1 c-0.911-0.398-1.849-1.449-2.258-2.143C22.169,20.989,21,20,21,20v-4c0,0,1.393,2,2.571,2c0.834,0,1.788-0.395,2.197-2.131 C26.17,14.227,26,12,26,12s0.627,0.096,0.961,0.335c0.201,0.128,0.527,0.27,0.838,0.27c0.322,0,0.627-0.154,0.752-0.641 C28.96,10.836,27,9.048,27,9.048V9 M26,7.395V9v0.048v0.441l0.326,0.297c0.627,0.575,1.211,1.392,1.276,1.76 c-0.03-0.014-0.061-0.03-0.091-0.047c-0.488-0.334-1.162-0.457-1.36-0.488l-1.243-0.191l0.094,1.255 c0.002,0.021,0.152,2.093-0.205,3.556C24.475,17,23.865,17,23.571,17c-0.328,0-1.196-0.779-1.752-1.573l-1.819-2.596L20,16v4 v0.463l0.354,0.3c0.293,0.248,1.134,1.019,1.541,1.626c0.445,0.742,1.517,2.008,2.705,2.527l0.645,0.282l0.483-0.512l0.099-0.105 c0.416-0.444,0.468-0.499,0.86-0.581H28h1v-1v-0.126v-0.57l-0.247-0.146c0.157-0.079,0.336-0.149,0.488-0.188l0.754-0.192L30,21 c0-0.624,0.192-1.471,0.396-2.369C30.679,17.382,31,15.965,31,14.455c0-1.513-0.06-2.968-0.779-4.141 c-0.685-1.141-2.437-2.042-2.781-2.211L26,7.395L26,7.395z"/><g><path fill="#fff" d="M16.663 36.281L14.542 31l-1.333 2.104c1.896 2.979 4.246 4.618 6.253 4.862C19.629 37.984 19.813 38 20 38l-1.458-6L16.663 36.281zM23.337 36.281L21.5 32 20 38c.187 0 .371-.016.554-.036 2.061-.251 4.383-1.964 6.3-4.943L25.479 31 23.337 36.281z"/></g><g><path fill="#fff" d="M26.989 26.389c-1.011.331-2.075.821-3.063 1.28-.005.003-.01.005-.016.007L25.495 31 26.989 26.389zM29.746 26.228C29.585 26.03 29.21 26 29 26c-.605 0-1.282.152-1.985.38L28.542 29l1.277-2.591C29.799 26.344 29.782 26.274 29.746 26.228zM22.958 28.113C21.827 28.62 20.831 29 20 29l1.509 3.006L22.958 28.113z"/></g><g><path fill="#fff" d="M13.011 26.389c1.011.331 2.075.821 3.063 1.28.005.003.01.005.016.007L14.505 31 13.011 26.389zM10.254 26.228C10.415 26.03 10.79 26 11 26c.605 0 1.282.152 1.985.38L11.458 29l-1.277-2.591C10.201 26.344 10.218 26.274 10.254 26.228zM17.042 28.113C18.173 28.62 19.169 29 20 29l-1.509 3.006L17.042 28.113z"/></g></svg>